<svg width="80" height="80" viewBox="0 0 80 80" fill="none" xmlns="http://www.w3.org/2000/svg">
<g clip-path="url(#clip0_8_265)">
<path d="M17.52 0H62.48C72.1562 0 80 7.84375 80 17.52V62.48C80 72.1562 72.1562 80 62.48 80H17.52C7.84375 80 0 72.1562 0 62.48V17.52C0 7.84375 7.84375 0 17.52 0Z" fill="url(#paint0_linear_8_265)"/>
<path d="M25.6381 58.0657L25.6456 58.0682L22.9103 62.8057C21.9118 64.5351 19.7006 65.1276 17.9712 64.1292C16.2421 63.1307 15.6493 60.9195 16.6478 59.1901L18.6628 55.7001L18.8562 55.3651C19.2015 54.8688 20.0537 54.012 21.7584 54.1732C21.7584 54.1732 25.77 54.6085 26.0603 56.6935C26.0603 56.6935 26.0996 57.3795 25.6381 58.0657ZM64.4328 45.9657H55.9034C55.3225 45.9266 55.069 45.7191 54.969 45.5985L54.9628 45.5876L45.8325 29.7732L45.8206 29.781L45.2731 28.996C44.3756 27.6235 42.9506 31.1335 42.9506 31.1335C41.249 35.0448 43.1921 39.4913 43.8693 40.8354L56.5512 62.801C57.5493 64.5301 59.7606 65.1229 61.4903 64.1242C63.2193 63.1257 63.8121 60.9145 62.8134 59.1851L59.6425 53.6926C59.5809 53.5595 59.474 53.1982 60.1243 53.1967H64.4328C66.4296 53.1967 68.0484 51.5779 68.0484 49.581C68.0484 47.5841 66.4296 45.9654 64.4328 45.9654V45.9657ZM47.8659 50.8807C47.8659 50.8807 48.3212 53.1967 46.5596 53.1967H15.0287C13.0318 53.1967 11.4131 51.5779 11.4131 49.581C11.4131 47.5841 13.0318 45.9654 15.0287 45.9654H23.135C24.4437 45.8898 24.7537 45.1341 24.7537 45.1341L24.7612 45.1379L35.3425 26.8104L35.3393 26.8098C35.5321 26.4557 35.3715 26.121 35.3437 26.0682L31.849 20.0154C30.8506 18.2863 31.4431 16.0748 33.1725 15.0766C34.9018 14.0782 37.1131 14.6704 38.1115 16.3998L39.7321 19.207L41.35 16.4048C42.3484 14.6757 44.5596 14.0829 46.289 15.0816C48.0184 16.0801 48.6109 18.291 47.6125 20.0204L32.8881 45.5235C32.8237 45.6788 32.804 45.9226 33.2831 45.9654H42.0843L42.0862 46.0513C42.0862 46.0513 47.1731 46.1304 47.8659 50.8807Z" fill="white"/>
</g>
<defs>
<linearGradient id="paint0_linear_8_265" x1="40" y1="0" x2="40" y2="80" gradientUnits="userSpaceOnUse">
<stop stop-color="#17C9FB"/>
<stop offset="1" stop-color="#1A74E8"/>
</linearGradient>
<clipPath id="clip0_8_265">
<rect width="80" height="80" fill="white"/>
</clipPath>
</defs>
</svg>
