<svg width="21" height="21" viewBox="0 0 21 21" fill="none" xmlns="http://www.w3.org/2000/svg">
<path d="M17.914 3.35669C17.5389 2.98175 17.0303 2.77112 16.5 2.77112C15.9697 2.77112 15.4611 2.98175 15.086 3.35669L7.5 10.9427V13.7707H10.328L17.914 6.18469C18.2889 5.80964 18.4996 5.30102 18.4996 4.77069C18.4996 4.24036 18.2889 3.73175 17.914 3.35669Z" fill="white"/>
<path fill-rule="evenodd" clip-rule="evenodd" d="M2.5 6.77075C2.5 6.24032 2.71071 5.73161 3.08579 5.35654C3.46086 4.98147 3.96957 4.77075 4.5 4.77075H8.5C8.76522 4.77075 9.01957 4.87611 9.20711 5.06365C9.39464 5.25118 9.5 5.50554 9.5 5.77075C9.5 6.03597 9.39464 6.29032 9.20711 6.47786C9.01957 6.66539 8.76522 6.77075 8.5 6.77075H4.5V16.7708H14.5V12.7708C14.5 12.5055 14.6054 12.2512 14.7929 12.0636C14.9804 11.8761 15.2348 11.7708 15.5 11.7708C15.7652 11.7708 16.0196 11.8761 16.2071 12.0636C16.3946 12.2512 16.5 12.5055 16.5 12.7708V16.7708C16.5 17.3012 16.2893 17.8099 15.9142 18.185C15.5391 18.56 15.0304 18.7708 14.5 18.7708H4.5C3.96957 18.7708 3.46086 18.56 3.08579 18.185C2.71071 17.8099 2.5 17.3012 2.5 16.7708V6.77075Z" fill="white"/>
</svg>
