<svg width="75" height="80" viewBox="0 0 75 80" fill="none" xmlns="http://www.w3.org/2000/svg">
<g clip-path="url(#clip0_8_237)">
<path d="M55.3163 52.2263C64.826 47.0225 72.0351 43.0572 72.6565 42.7489C74.6443 41.6954 76.6971 38.9071 72.6565 36.7413C71.3519 36.0601 64.328 32.2184 55.3163 27.2639L42.8235 39.8376L55.3163 52.226V52.2263Z" fill="#FFD900"/>
<path d="M42.8236 39.8376L3.04517 79.7918C3.97886 79.915 5.03296 79.6683 6.27573 78.9874C8.88491 77.5641 36.5447 62.5103 55.3164 52.2292L42.8236 39.8376Z" fill="#F43249"/>
<path d="M42.8235 39.8376L55.3163 27.3258C55.3163 27.3258 9.07351 2.17514 6.27566 0.690473C5.22156 0.0682829 4.04031 -0.116535 2.98328 0.068283L42.8235 39.8376Z" fill="#00EE76"/>
<path d="M42.8235 39.8377L2.9833 0.0683594C1.36641 0.440914 0 1.86456 0 4.7761V75.0841C0 77.7489 1.05732 79.6684 3.04512 79.8535L42.8235 39.8377Z" fill="#00D3FF"/>
</g>
<defs>
<clipPath id="clip0_8_237">
<rect width="75" height="80" fill="white"/>
</clipPath>
</defs>
</svg>
