<svg width="29" height="29" viewBox="0 0 29 29" fill="none" xmlns="http://www.w3.org/2000/svg">
<path fill-rule="evenodd" clip-rule="evenodd" d="M9.02013 1.28825C10.4375 1.223 10.8894 1.2085 14.4999 1.2085C18.1104 1.2085 18.5623 1.2242 19.9785 1.28825C21.3947 1.35229 22.3613 1.57825 23.2072 1.9057C24.0929 2.24041 24.8964 2.76362 25.561 3.44029C26.2377 4.10366 26.7597 4.906 27.0932 5.79291C27.4218 6.63875 27.6466 7.60541 27.7118 9.01916C27.7771 10.439 27.7916 10.8909 27.7916 14.5002C27.7916 18.1107 27.7759 18.5626 27.7118 19.98C27.6478 21.3937 27.4218 22.3604 27.0932 23.2062C26.7597 24.0932 26.2368 24.8969 25.561 25.5612C24.8964 26.2379 24.0929 26.7599 23.2072 27.0934C22.3613 27.4221 21.3947 27.6468 19.9809 27.7121C18.5623 27.7773 18.1104 27.7918 14.4999 27.7918C10.8894 27.7918 10.4375 27.7761 9.02013 27.7121C7.60638 27.648 6.63971 27.4221 5.79388 27.0934C4.90686 26.7599 4.1032 26.237 3.43884 25.5612C2.76263 24.8975 2.23934 24.0942 1.90546 23.2074C1.578 22.3616 1.35325 21.3949 1.288 19.9812C1.22275 18.5614 1.20825 18.1095 1.20825 14.5002C1.20825 10.8897 1.22396 10.4377 1.288 9.02158C1.35204 7.60541 1.578 6.63875 1.90546 5.79291C2.23983 4.90609 2.76352 4.10283 3.44004 3.43908C4.10347 2.76302 4.90632 2.23974 5.79267 1.9057C6.6385 1.57825 7.60517 1.3535 9.01892 1.28825H9.02013ZM19.871 3.68075C18.4693 3.6167 18.0488 3.60341 14.4999 3.60341C10.951 3.60341 10.5305 3.6167 9.12888 3.68075C7.83234 3.73995 7.12909 3.95625 6.66025 4.1387C6.04038 4.38037 5.59692 4.66675 5.13171 5.13195C4.69072 5.56098 4.35134 6.08325 4.13846 6.6605C3.956 7.12933 3.73971 7.83258 3.6805 9.12912C3.61646 10.5308 3.60317 10.9513 3.60317 14.5002C3.60317 18.049 3.61646 18.4695 3.6805 19.8712C3.73971 21.1677 3.956 21.871 4.13846 22.3398C4.35113 22.9162 4.69067 23.4394 5.13171 23.8684C5.56067 24.3094 6.08388 24.649 6.66025 24.8616C7.12909 25.0441 7.83234 25.2604 9.12888 25.3196C10.5305 25.3836 10.9498 25.3969 14.4999 25.3969C18.05 25.3969 18.4693 25.3836 19.871 25.3196C21.1675 25.2604 21.8708 25.0441 22.3396 24.8616C22.9595 24.62 23.4029 24.3336 23.8681 23.8684C24.3092 23.4394 24.6487 22.9162 24.8614 22.3398C25.0438 21.871 25.2601 21.1677 25.3193 19.8712C25.3834 18.4695 25.3967 18.049 25.3967 14.5002C25.3967 10.9513 25.3834 10.5308 25.3193 9.12912C25.2601 7.83258 25.0438 7.12933 24.8614 6.6605C24.6197 6.04062 24.3333 5.59716 23.8681 5.13195C23.4391 4.691 22.9168 4.35163 22.3396 4.1387C21.8708 3.95625 21.1675 3.73995 19.871 3.68075ZM12.8022 18.5976C13.7503 18.9923 14.8061 19.0456 15.7891 18.7483C16.7722 18.4511 17.6215 17.8218 18.1921 16.9679C18.7627 16.114 19.0192 15.0885 18.9176 14.0665C18.8161 13.0445 18.363 12.0895 17.6355 11.3645C17.1718 10.9011 16.6111 10.5463 15.9938 10.3255C15.3765 10.1048 14.7179 10.0237 14.0655 10.0881C13.4131 10.1524 12.7831 10.3606 12.2208 10.6977C11.6585 11.0348 11.1779 11.4923 10.8137 12.0374C10.4494 12.5825 10.2106 13.2016 10.1143 13.85C10.018 14.4985 10.0667 15.1603 10.2569 15.7877C10.4471 16.4151 10.774 16.9925 11.2141 17.4784C11.6542 17.9643 12.1966 18.3465 12.8022 18.5976ZM9.669 9.66925C10.3034 9.03484 11.0566 8.5316 11.8854 8.18827C12.7143 7.84493 13.6027 7.66821 14.4999 7.66821C15.3971 7.66821 16.2855 7.84493 17.1144 8.18827C17.9433 8.5316 18.6964 9.03484 19.3308 9.66925C19.9652 10.3037 20.4685 11.0568 20.8118 11.8857C21.1552 12.7146 21.3319 13.603 21.3319 14.5002C21.3319 15.3973 21.1552 16.2857 20.8118 17.1146C20.4685 17.9435 19.9652 18.6967 19.3308 19.3311C18.0496 20.6123 16.3119 21.3321 14.4999 21.3321C12.688 21.3321 10.9502 20.6123 9.669 19.3311C8.38776 18.0498 7.66797 16.3121 7.66797 14.5002C7.66797 12.6882 8.38776 10.9505 9.669 9.66925ZM22.8471 8.68566C23.0043 8.53736 23.1302 8.35903 23.2172 8.16121C23.3043 7.9634 23.3507 7.75013 23.3539 7.53404C23.357 7.31794 23.3168 7.10341 23.2355 6.90314C23.1543 6.70288 23.0337 6.52095 22.8809 6.36813C22.7281 6.21531 22.5461 6.0947 22.3459 6.01345C22.1456 5.93221 21.9311 5.89197 21.715 5.89512C21.4989 5.89827 21.2856 5.94474 21.0878 6.0318C20.89 6.11885 20.7116 6.2447 20.5633 6.40191C20.2749 6.70766 20.117 7.11377 20.1231 7.53404C20.1293 7.95431 20.2989 8.35564 20.5961 8.65285C20.8934 8.95005 21.2947 9.11973 21.715 9.12586C22.1352 9.13198 22.5413 8.97408 22.8471 8.68566Z" fill="white"/>
</svg>
